ISO-10303-21;
HEADER;
FILE_DESCRIPTION(('ViewDefinition [notYetAssigned]'),'2;1');
FILE_NAME(
/* name */ 'G:\\My Drive\\Sculpt Projects\\Test\\AI Makeup\\wall polyline.ifc',
/* time_stamp */ '2026-01-22T18:50:40',
/* author */ ('rudyb'),
/* organization */ ('Unknown'),
/* preprocessor_version */ 'CDLSystem.ModelExt v1.0.0.0 by Geometry Gym Pty Ltd built 2025-05-12T07:48:52',
/* originating_system */ 'PlansXpress v5.8.0.1700',
/* authorization */ 'None');

FILE_SCHEMA (('IFC2X3'));
ENDSEC;

DATA;
#1= IFCCARTESIANPOINT((0.0,0.0,0.0));
#2= IFCDIRECTION((1.0,0.0,0.0));
#3= IFCDIRECTION((0.0,1.0,0.0));
#4= IFCDIRECTION((0.0,0.0,1.0));
#5= IFCAXIS2PLACEMENT3D(#1,$,$);
#6= IFCCARTESIANPOINT((0.0,0.0));
#7= IFCAXIS2PLACEMENT2D(#6,$);
#8= IFCSIUNIT(*,.LENGTHUNIT.,$,.METRE.);
#9= IFCSIUNIT(*,.AREAUNIT.,$,.SQUARE_METRE.);
#10= IFCSIUNIT(*,.VOLUMEUNIT.,$,.CUBIC_METRE.);
#11= IFCCARTESIANPOINT((0.0,0.0,0.0));
#12= IFCAXIS2PLACEMENT3D(#11,#4,#2);
#13= IFCLOCALPLACEMENT($,#12);
#14= IFCBUILDING('0TS02$8Bj0b8fcTIbaWWe$',#20,$,$,$,#13,$,$,.ELEMENT.,$,$,#22);
#15= IFCPERSON('rudyb','rudyb',$,$,$,$,$,$);
#16= IFCORGANIZATION($,'Unknown',$,$,$);
#17= IFCPERSONANDORGANIZATION(#15,#16,$);
#18= IFCAPPLICATION(#19,'1.0.0.0','PlansXpress v5.8.0.1700','PlansXpress v5.8.0.1700');
#19= IFCORGANIZATION($,'Geometry Gym Pty Ltd',$,$,$);
#20= IFCOWNERHISTORY(#17,#18,$,.ADDED.,1769107840,$,$,1769107840);
#21= IFCRELCONTAINEDINSPATIALSTRUCTURE('3IvgJ8Hcz3JQ8quTiyayxM',#20,'Building','Building Container for Elements',(#180,#316,#452,#588,#647),#14);
#22= IFCPOSTALADDRESS($,$,$,$,('Unknown'),$,'Unknown',$,'Unknown','Unknown');
#23= IFCSITE('1P5aX48ZDD2u3cC84xVABo',#20,$,$,$,#13,$,$,.ELEMENT.,$,$,$,$,$);
#25= IFCPROJECT('3pQDcWn219zBAFrVjPDpDN',#20,'UNKNOWN PROJECT',$,$,$,$,(#168),#26);
#26= IFCUNITASSIGNMENT((#27,#9,#10,#28,#29));
#27= IFCSIUNIT(*,.LENGTHUNIT.,.MILLI.,.METRE.);
#28= IFCSIUNIT(*,.PLANEANGLEUNIT.,$,.RADIAN.);
#29= IFCSIUNIT(*,.TIMEUNIT.,$,.SECOND.);
#30= IFCRELAGGREGATES('0$Vr_zPyb7PxOcvRPExd7M',#20,'Project Container','Project Container for Buildings',#25,(#14));
#31= IFCCARTESIANPOINT((0.0,0.0,0.0));
#32= IFCAXIS2PLACEMENT3D(#31,$,$);
#33= IFCLOCALPLACEMENT($,#32);
#34= IFCCARTESIANPOINT((9056.32393,24757.04095,2400.0));
#35= IFCCARTESIANPOINT((9158.82393,24654.54095,2400.0));
#36= IFCCARTESIANPOINT((9056.32393,24654.54095,2400.0));
#37= IFCCARTESIANPOINT((9056.32393,18174.54095,2400.0));
#38= IFCCARTESIANPOINT((9158.82393,18174.54095,2400.0));
#39= IFCCARTESIANPOINT((9056.32393,18072.04095,2400.0));
#40= IFCCARTESIANPOINT((9056.32393,24757.04095,0.0));
#41= IFCCARTESIANPOINT((9158.82393,24654.54095,0.0));
#42= IFCCARTESIANPOINT((9056.32393,24654.54095,0.0));
#43= IFCCARTESIANPOINT((9056.32393,18174.54095,0.0));
#44= IFCCARTESIANPOINT((9158.82393,18174.54095,0.0));
#45= IFCCARTESIANPOINT((9056.32393,18072.04095,0.0));
#46= IFCPOLYLOOP((#34,#35,#36));
#47= IFCFACEOUTERBOUND(#46,.F.);
#48= IFCFACE((#47));
#49= IFCPOLYLOOP((#37,#38,#39));
#50= IFCFACEOUTERBOUND(#49,.F.);
#51= IFCFACE((#50));
#52= IFCPOLYLOOP((#36,#35,#38));
#53= IFCFACEOUTERBOUND(#52,.F.);
#54= IFCFACE((#53));
#55= IFCPOLYLOOP((#36,#38,#37));
#56= IFCFACEOUTERBOUND(#55,.F.);
#57= IFCFACE((#56));
#58= IFCPOLYLOOP((#40,#41,#42));
#59= IFCFACEOUTERBOUND(#58,.F.);
#60= IFCFACE((#59));
#61= IFCPOLYLOOP((#43,#44,#45));
#62= IFCFACEOUTERBOUND(#61,.F.);
#63= IFCFACE((#62));
#64= IFCPOLYLOOP((#42,#41,#44));
#65= IFCFACEOUTERBOUND(#64,.F.);
#66= IFCFACE((#65));
#67= IFCPOLYLOOP((#42,#44,#43));
#68= IFCFACEOUTERBOUND(#67,.F.);
#69= IFCFACE((#68));
#70= IFCPOLYLOOP((#40,#41,#35));
#71= IFCFACEOUTERBOUND(#70,.F.);
#72= IFCFACE((#71));
#73= IFCPOLYLOOP((#40,#35,#34));
#74= IFCFACEOUTERBOUND(#73,.F.);
#75= IFCFACE((#74));
#76= IFCPOLYLOOP((#45,#44,#38));
#77= IFCFACEOUTERBOUND(#76,.F.);
#78= IFCFACE((#77));
#79= IFCPOLYLOOP((#45,#38,#39));
#80= IFCFACEOUTERBOUND(#79,.F.);
#81= IFCFACE((#80));
#82= IFCPOLYLOOP((#40,#45,#39));
#83= IFCFACEOUTERBOUND(#82,.F.);
#84= IFCFACE((#83));
#85= IFCPOLYLOOP((#40,#39,#34));
#86= IFCFACEOUTERBOUND(#85,.F.);
#87= IFCFACE((#86));
#88= IFCPOLYLOOP((#35,#38,#44));
#89= IFCFACEOUTERBOUND(#88,.F.);
#90= IFCFACE((#89));
#91= IFCPOLYLOOP((#35,#44,#41));
#92= IFCFACEOUTERBOUND(#91,.F.);
#93= IFCFACE((#92));
#94= IFCOPENSHELL((#48,#51,#54,#57,#60,#63,#66,#69,#72,#75,#78,#81,#84,#87,#90,#93));
#95= IFCFACEBASEDSURFACEMODEL((#94));
#96= IFCCOLOURRGB($,0.627450980392157,0.32156862745098,0.176470588235294);
#97= IFCSURFACESTYLESHADING(#96);
#98= IFCSURFACESTYLE($,.BOTH.,(#97));
#99= IFCSTYLEDITEM(#95,(#100),$);
#100= IFCPRESENTATIONSTYLEASSIGNMENT((#98));
#101= IFCCARTESIANPOINT((9298.82393,24514.54095,2400.0));
#102= IFCCARTESIANPOINT((9398.82393,24414.54095,2400.0));
#103= IFCCARTESIANPOINT((9298.82393,24414.54095,2400.0));
#104= IFCCARTESIANPOINT((9298.82393,18414.54095,2400.0));
#105= IFCCARTESIANPOINT((9398.82393,18414.54095,2400.0));
#106= IFCCARTESIANPOINT((9298.82393,18314.54095,2400.0));
#107= IFCCARTESIANPOINT((9298.82393,24514.54095,0.0));
#108= IFCCARTESIANPOINT((9398.82393,24414.54095,0.0));
#109= IFCCARTESIANPOINT((9298.82393,24414.54095,0.0));
#110= IFCCARTESIANPOINT((9298.82393,18414.54095,0.0));
#111= IFCCARTESIANPOINT((9398.82393,18414.54095,0.0));
#112= IFCCARTESIANPOINT((9298.82393,18314.54095,0.0));
#113= IFCPOLYLOOP((#101,#102,#103));
#114= IFCFACEOUTERBOUND(#113,.F.);
#115= IFCFACE((#114));
#116= IFCPOLYLOOP((#104,#105,#106));
#117= IFCFACEOUTERBOUND(#116,.F.);
#118= IFCFACE((#117));
#119= IFCPOLYLOOP((#103,#102,#105));
#120= IFCFACEOUTERBOUND(#119,.F.);
#121= IFCFACE((#120));
#122= IFCPOLYLOOP((#103,#105,#104));
#123= IFCFACEOUTERBOUND(#122,.F.);
#124= IFCFACE((#123));
#125= IFCPOLYLOOP((#107,#108,#109));
#126= IFCFACEOUTERBOUND(#125,.F.);
#127= IFCFACE((#126));
#128= IFCPOLYLOOP((#110,#111,#112));
#129= IFCFACEOUTERBOUND(#128,.F.);
#130= IFCFACE((#129));
#131= IFCPOLYLOOP((#109,#108,#111));
#132= IFCFACEOUTERBOUND(#131,.F.);
#133= IFCFACE((#132));
#134= IFCPOLYLOOP((#109,#111,#110));
#135= IFCFACEOUTERBOUND(#134,.F.);
#136= IFCFACE((#135));
#137= IFCPOLYLOOP((#107,#108,#102));
#138= IFCFACEOUTERBOUND(#137,.F.);
#139= IFCFACE((#138));
#140= IFCPOLYLOOP((#107,#102,#101));
#141= IFCFACEOUTERBOUND(#140,.F.);
#142= IFCFACE((#141));
#143= IFCPOLYLOOP((#112,#111,#105));
#144= IFCFACEOUTERBOUND(#143,.F.);
#145= IFCFACE((#144));
#146= IFCPOLYLOOP((#112,#105,#106));
#147= IFCFACEOUTERBOUND(#146,.F.);
#148= IFCFACE((#147));
#149= IFCPOLYLOOP((#107,#112,#106));
#150= IFCFACEOUTERBOUND(#149,.F.);
#151= IFCFACE((#150));
#152= IFCPOLYLOOP((#107,#106,#101));
#153= IFCFACEOUTERBOUND(#152,.F.);
#154= IFCFACE((#153));
#155= IFCPOLYLOOP((#102,#105,#111));
#156= IFCFACEOUTERBOUND(#155,.F.);
#157= IFCFACE((#156));
#158= IFCPOLYLOOP((#102,#111,#108));
#159= IFCFACEOUTERBOUND(#158,.F.);
#160= IFCFACE((#159));
#161= IFCOPENSHELL((#48,#51,#54,#57,#60,#63,#66,#69,#72,#75,#78,#81,#84,#87,#90,#93,#115,#118,#121,#124,#127,#130,#133,#136,#139,#142,#145,#148,#151,#154,#157,#160));
#162= IFCFACEBASEDSURFACEMODEL((#161));
#163= IFCCOLOURRGB($,1.0,1.0,1.0);
#164= IFCSURFACESTYLESHADING(#163);
#165= IFCSURFACESTYLE($,.BOTH.,(#164));
#166= IFCSTYLEDITEM(#162,(#167),$);
#167= IFCPRESENTATIONSTYLEASSIGNMENT((#165));
#168= IFCGEOMETRICREPRESENTATIONCONTEXT($,'Model',3,0.0001,#170,#171);
#169= IFCCARTESIANPOINT((0.0,0.0,0.0));
#170= IFCAXIS2PLACEMENT3D(#169,$,$);
#171= IFCDIRECTION((0.0,1.0));
#172= IFCGEOMETRICREPRESENTATIONSUBCONTEXT('Body','Model',*,*,*,*,#168,$,.MODEL_VIEW.,$);
#173= IFCSHAPEREPRESENTATION(#172,'Body','SurfaceModel',(#95,#162));
#174= IFCPRODUCTDEFINITIONSHAPE($,$,(#173));
#175= IFCCARTESIANPOINT((0.0,0.0,0.0));
#176= IFCDIRECTION((0.0,0.0,1.0));
#177= IFCDIRECTION((1.0,0.0,0.0));
#178= IFCAXIS2PLACEMENT3D(#175,#176,#177);
#179= IFCLOCALPLACEMENT($,#178);
#180= IFCWALL('3Am8MHGgrDbAUIgdfryvGB',#20,$,$,$,#179,#174,$);
#181= IFCCARTESIANPOINT((9056.32393,18072.04095,2400.0));
#182= IFCCARTESIANPOINT((9158.82393,18174.54095,2400.0));
#183= IFCCARTESIANPOINT((9158.82393,18072.04095,2400.0));
#184= IFCCARTESIANPOINT((14638.82393,18072.04095,2400.0));
#185= IFCCARTESIANPOINT((14638.82393,18174.54095,2400.0));
#186= IFCCARTESIANPOINT((14741.32393,18072.04095,2400.0));
#187= IFCCARTESIANPOINT((9056.32393,18072.04095,0.0));
#188= IFCCARTESIANPOINT((9158.82393,18174.54095,0.0));
#189= IFCCARTESIANPOINT((9158.82393,18072.04095,0.0));
#190= IFCCARTESIANPOINT((14638.82393,18072.04095,0.0));
#191= IFCCARTESIANPOINT((14638.82393,18174.54095,0.0));
#192= IFCCARTESIANPOINT((14741.32393,18072.04095,0.0));
#193= IFCPOLYLOOP((#181,#182,#183));
#194= IFCFACEOUTERBOUND(#193,.F.);
#195= IFCFACE((#194));
#196= IFCPOLYLOOP((#184,#185,#186));
#197= IFCFACEOUTERBOUND(#196,.F.);
#198= IFCFACE((#197));
#199= IFCPOLYLOOP((#183,#182,#185));
#200= IFCFACEOUTERBOUND(#199,.F.);
#201= IFCFACE((#200));
#202= IFCPOLYLOOP((#183,#185,#184));
#203= IFCFACEOUTERBOUND(#202,.F.);
#204= IFCFACE((#203));
#205= IFCPOLYLOOP((#187,#188,#189));
#206= IFCFACEOUTERBOUND(#205,.F.);
#207= IFCFACE((#206));
#208= IFCPOLYLOOP((#190,#191,#192));
#209= IFCFACEOUTERBOUND(#208,.F.);
#210= IFCFACE((#209));
#211= IFCPOLYLOOP((#189,#188,#191));
#212= IFCFACEOUTERBOUND(#211,.F.);
#213= IFCFACE((#212));
#214= IFCPOLYLOOP((#189,#191,#190));
#215= IFCFACEOUTERBOUND(#214,.F.);
#216= IFCFACE((#215));
#217= IFCPOLYLOOP((#187,#188,#182));
#218= IFCFACEOUTERBOUND(#217,.F.);
#219= IFCFACE((#218));
#220= IFCPOLYLOOP((#187,#182,#181));
#221= IFCFACEOUTERBOUND(#220,.F.);
#222= IFCFACE((#221));
#223= IFCPOLYLOOP((#192,#191,#185));
#224= IFCFACEOUTERBOUND(#223,.F.);
#225= IFCFACE((#224));
#226= IFCPOLYLOOP((#192,#185,#186));
#227= IFCFACEOUTERBOUND(#226,.F.);
#228= IFCFACE((#227));
#229= IFCPOLYLOOP((#187,#192,#186));
#230= IFCFACEOUTERBOUND(#229,.F.);
#231= IFCFACE((#230));
#232= IFCPOLYLOOP((#187,#186,#181));
#233= IFCFACEOUTERBOUND(#232,.F.);
#234= IFCFACE((#233));
#235= IFCPOLYLOOP((#182,#185,#191));
#236= IFCFACEOUTERBOUND(#235,.F.);
#237= IFCFACE((#236));
#238= IFCPOLYLOOP((#182,#191,#188));
#239= IFCFACEOUTERBOUND(#238,.F.);
#240= IFCFACE((#239));
#241= IFCOPENSHELL((#195,#198,#201,#204,#207,#210,#213,#216,#219,#222,#225,#228,#231,#234,#237,#240));
#242= IFCFACEBASEDSURFACEMODEL((#241));
#243= IFCSTYLEDITEM(#242,(#244),$);
#244= IFCPRESENTATIONSTYLEASSIGNMENT((#98));
#245= IFCCARTESIANPOINT((9298.82393,18314.54095,2400.0));
#246= IFCCARTESIANPOINT((9398.82393,18414.54095,2400.0));
#247= IFCCARTESIANPOINT((9398.82393,18314.54095,2400.0));
#248= IFCCARTESIANPOINT((14398.82393,18314.54095,2400.0));
#249= IFCCARTESIANPOINT((14398.82393,18414.54095,2400.0));
#250= IFCCARTESIANPOINT((14498.82393,18314.54095,2400.0));
#251= IFCCARTESIANPOINT((9298.82393,18314.54095,0.0));
#252= IFCCARTESIANPOINT((9398.82393,18414.54095,0.0));
#253= IFCCARTESIANPOINT((9398.82393,18314.54095,0.0));
#254= IFCCARTESIANPOINT((14398.82393,18314.54095,0.0));
#255= IFCCARTESIANPOINT((14398.82393,18414.54095,0.0));
#256= IFCCARTESIANPOINT((14498.82393,18314.54095,0.0));
#257= IFCPOLYLOOP((#245,#246,#247));
#258= IFCFACEOUTERBOUND(#257,.F.);
#259= IFCFACE((#258));
#260= IFCPOLYLOOP((#248,#249,#250));
#261= IFCFACEOUTERBOUND(#260,.F.);
#262= IFCFACE((#261));
#263= IFCPOLYLOOP((#247,#246,#249));
#264= IFCFACEOUTERBOUND(#263,.F.);
#265= IFCFACE((#264));
#266= IFCPOLYLOOP((#247,#249,#248));
#267= IFCFACEOUTERBOUND(#266,.F.);
#268= IFCFACE((#267));
#269= IFCPOLYLOOP((#251,#252,#253));
#270= IFCFACEOUTERBOUND(#269,.F.);
#271= IFCFACE((#270));
#272= IFCPOLYLOOP((#254,#255,#256));
#273= IFCFACEOUTERBOUND(#272,.F.);
#274= IFCFACE((#273));
#275= IFCPOLYLOOP((#253,#252,#255));
#276= IFCFACEOUTERBOUND(#275,.F.);
#277= IFCFACE((#276));
#278= IFCPOLYLOOP((#253,#255,#254));
#279= IFCFACEOUTERBOUND(#278,.F.);
#280= IFCFACE((#279));
#281= IFCPOLYLOOP((#251,#252,#246));
#282= IFCFACEOUTERBOUND(#281,.F.);
#283= IFCFACE((#282));
#284= IFCPOLYLOOP((#251,#246,#245));
#285= IFCFACEOUTERBOUND(#284,.F.);
#286= IFCFACE((#285));
#287= IFCPOLYLOOP((#256,#255,#249));
#288= IFCFACEOUTERBOUND(#287,.F.);
#289= IFCFACE((#288));
#290= IFCPOLYLOOP((#256,#249,#250));
#291= IFCFACEOUTERBOUND(#290,.F.);
#292= IFCFACE((#291));
#293= IFCPOLYLOOP((#251,#256,#250));
#294= IFCFACEOUTERBOUND(#293,.F.);
#295= IFCFACE((#294));
#296= IFCPOLYLOOP((#251,#250,#245));
#297= IFCFACEOUTERBOUND(#296,.F.);
#298= IFCFACE((#297));
#299= IFCPOLYLOOP((#246,#249,#255));
#300= IFCFACEOUTERBOUND(#299,.F.);
#301= IFCFACE((#300));
#302= IFCPOLYLOOP((#246,#255,#252));
#303= IFCFACEOUTERBOUND(#302,.F.);
#304= IFCFACE((#303));
#305= IFCOPENSHELL((#195,#198,#201,#204,#207,#210,#213,#216,#219,#222,#225,#228,#231,#234,#237,#240,#259,#262,#265,#268,#271,#274,#277,#280,#283,#286,#289,#292,#295,#298,#301,#304));
#306= IFCFACEBASEDSURFACEMODEL((#305));
#307= IFCSTYLEDITEM(#306,(#308),$);
#308= IFCPRESENTATIONSTYLEASSIGNMENT((#165));
#309= IFCSHAPEREPRESENTATION(#172,'Body','SurfaceModel',(#242,#306));
#310= IFCPRODUCTDEFINITIONSHAPE($,$,(#309));
#311= IFCCARTESIANPOINT((0.0,0.0,0.0));
#312= IFCDIRECTION((0.0,0.0,1.0));
#313= IFCDIRECTION((1.0,0.0,0.0));
#314= IFCAXIS2PLACEMENT3D(#311,#312,#313);
#315= IFCLOCALPLACEMENT($,#314);
#316= IFCWALL('006lQ7tmf2IQOG0bph1g_B',#20,$,$,$,#315,#310,$);
#317= IFCCARTESIANPOINT((14741.32393,18072.04095,2400.0));
#318= IFCCARTESIANPOINT((14638.82393,18174.54095,2400.0));
#319= IFCCARTESIANPOINT((14741.32393,18174.54095,2400.0));
#320= IFCCARTESIANPOINT((14741.32393,24654.54095,2400.0));
#321= IFCCARTESIANPOINT((14638.82393,24654.54095,2400.0));
#322= IFCCARTESIANPOINT((14741.32393,24757.04095,2400.0));
#323= IFCCARTESIANPOINT((14741.32393,18072.04095,0.0));
#324= IFCCARTESIANPOINT((14638.82393,18174.54095,0.0));
#325= IFCCARTESIANPOINT((14741.32393,18174.54095,0.0));
#326= IFCCARTESIANPOINT((14741.32393,24654.54095,0.0));
#327= IFCCARTESIANPOINT((14638.82393,24654.54095,0.0));
#328= IFCCARTESIANPOINT((14741.32393,24757.04095,0.0));
#329= IFCPOLYLOOP((#317,#318,#319));
#330= IFCFACEOUTERBOUND(#329,.F.);
#331= IFCFACE((#330));
#332= IFCPOLYLOOP((#320,#321,#322));
#333= IFCFACEOUTERBOUND(#332,.F.);
#334= IFCFACE((#333));
#335= IFCPOLYLOOP((#319,#318,#321));
#336= IFCFACEOUTERBOUND(#335,.F.);
#337= IFCFACE((#336));
#338= IFCPOLYLOOP((#319,#321,#320));
#339= IFCFACEOUTERBOUND(#338,.F.);
#340= IFCFACE((#339));
#341= IFCPOLYLOOP((#323,#324,#325));
#342= IFCFACEOUTERBOUND(#341,.F.);
#343= IFCFACE((#342));
#344= IFCPOLYLOOP((#326,#327,#328));
#345= IFCFACEOUTERBOUND(#344,.F.);
#346= IFCFACE((#345));
#347= IFCPOLYLOOP((#325,#324,#327));
#348= IFCFACEOUTERBOUND(#347,.F.);
#349= IFCFACE((#348));
#350= IFCPOLYLOOP((#325,#327,#326));
#351= IFCFACEOUTERBOUND(#350,.F.);
#352= IFCFACE((#351));
#353= IFCPOLYLOOP((#323,#324,#318));
#354= IFCFACEOUTERBOUND(#353,.F.);
#355= IFCFACE((#354));
#356= IFCPOLYLOOP((#323,#318,#317));
#357= IFCFACEOUTERBOUND(#356,.F.);
#358= IFCFACE((#357));
#359= IFCPOLYLOOP((#328,#327,#321));
#360= IFCFACEOUTERBOUND(#359,.F.);
#361= IFCFACE((#360));
#362= IFCPOLYLOOP((#328,#321,#322));
#363= IFCFACEOUTERBOUND(#362,.F.);
#364= IFCFACE((#363));
#365= IFCPOLYLOOP((#323,#328,#322));
#366= IFCFACEOUTERBOUND(#365,.F.);
#367= IFCFACE((#366));
#368= IFCPOLYLOOP((#323,#322,#317));
#369= IFCFACEOUTERBOUND(#368,.F.);
#370= IFCFACE((#369));
#371= IFCPOLYLOOP((#318,#321,#327));
#372= IFCFACEOUTERBOUND(#371,.F.);
#373= IFCFACE((#372));
#374= IFCPOLYLOOP((#318,#327,#324));
#375= IFCFACEOUTERBOUND(#374,.F.);
#376= IFCFACE((#375));
#377= IFCOPENSHELL((#331,#334,#337,#340,#343,#346,#349,#352,#355,#358,#361,#364,#367,#370,#373,#376));
#378= IFCFACEBASEDSURFACEMODEL((#377));
#379= IFCSTYLEDITEM(#378,(#380),$);
#380= IFCPRESENTATIONSTYLEASSIGNMENT((#98));
#381= IFCCARTESIANPOINT((14498.82393,18314.54095,2400.0));
#382= IFCCARTESIANPOINT((14398.82393,18414.54095,2400.0));
#383= IFCCARTESIANPOINT((14498.82393,18414.54095,2400.0));
#384= IFCCARTESIANPOINT((14498.82393,24414.54095,2400.0));
#385= IFCCARTESIANPOINT((14398.82393,24414.54095,2400.0));
#386= IFCCARTESIANPOINT((14498.82393,24514.54095,2400.0));
#387= IFCCARTESIANPOINT((14498.82393,18314.54095,0.0));
#388= IFCCARTESIANPOINT((14398.82393,18414.54095,0.0));
#389= IFCCARTESIANPOINT((14498.82393,18414.54095,0.0));
#390= IFCCARTESIANPOINT((14498.82393,24414.54095,0.0));
#391= IFCCARTESIANPOINT((14398.82393,24414.54095,0.0));
#392= IFCCARTESIANPOINT((14498.82393,24514.54095,0.0));
#393= IFCPOLYLOOP((#381,#382,#383));
#394= IFCFACEOUTERBOUND(#393,.F.);
#395= IFCFACE((#394));
#396= IFCPOLYLOOP((#384,#385,#386));
#397= IFCFACEOUTERBOUND(#396,.F.);
#398= IFCFACE((#397));
#399= IFCPOLYLOOP((#383,#382,#385));
#400= IFCFACEOUTERBOUND(#399,.F.);
#401= IFCFACE((#400));
#402= IFCPOLYLOOP((#383,#385,#384));
#403= IFCFACEOUTERBOUND(#402,.F.);
#404= IFCFACE((#403));
#405= IFCPOLYLOOP((#387,#388,#389));
#406= IFCFACEOUTERBOUND(#405,.F.);
#407= IFCFACE((#406));
#408= IFCPOLYLOOP((#390,#391,#392));
#409= IFCFACEOUTERBOUND(#408,.F.);
#410= IFCFACE((#409));
#411= IFCPOLYLOOP((#389,#388,#391));
#412= IFCFACEOUTERBOUND(#411,.F.);
#413= IFCFACE((#412));
#414= IFCPOLYLOOP((#389,#391,#390));
#415= IFCFACEOUTERBOUND(#414,.F.);
#416= IFCFACE((#415));
#417= IFCPOLYLOOP((#387,#388,#382));
#418= IFCFACEOUTERBOUND(#417,.F.);
#419= IFCFACE((#418));
#420= IFCPOLYLOOP((#387,#382,#381));
#421= IFCFACEOUTERBOUND(#420,.F.);
#422= IFCFACE((#421));
#423= IFCPOLYLOOP((#392,#391,#385));
#424= IFCFACEOUTERBOUND(#423,.F.);
#425= IFCFACE((#424));
#426= IFCPOLYLOOP((#392,#385,#386));
#427= IFCFACEOUTERBOUND(#426,.F.);
#428= IFCFACE((#427));
#429= IFCPOLYLOOP((#387,#392,#386));
#430= IFCFACEOUTERBOUND(#429,.F.);
#431= IFCFACE((#430));
#432= IFCPOLYLOOP((#387,#386,#381));
#433= IFCFACEOUTERBOUND(#432,.F.);
#434= IFCFACE((#433));
#435= IFCPOLYLOOP((#382,#385,#391));
#436= IFCFACEOUTERBOUND(#435,.F.);
#437= IFCFACE((#436));
#438= IFCPOLYLOOP((#382,#391,#388));
#439= IFCFACEOUTERBOUND(#438,.F.);
#440= IFCFACE((#439));
#441= IFCOPENSHELL((#331,#334,#337,#340,#343,#346,#349,#352,#355,#358,#361,#364,#367,#370,#373,#376,#395,#398,#401,#404,#407,#410,#413,#416,#419,#422,#425,#428,#431,#434,#437,#440));
#442= IFCFACEBASEDSURFACEMODEL((#441));
#443= IFCSTYLEDITEM(#442,(#444),$);
#444= IFCPRESENTATIONSTYLEASSIGNMENT((#165));
#445= IFCSHAPEREPRESENTATION(#172,'Body','SurfaceModel',(#378,#442));
#446= IFCPRODUCTDEFINITIONSHAPE($,$,(#445));
#447= IFCCARTESIANPOINT((0.0,0.0,0.0));
#448= IFCDIRECTION((0.0,0.0,1.0));
#449= IFCDIRECTION((1.0,0.0,0.0));
#450= IFCAXIS2PLACEMENT3D(#447,#448,#449);
#451= IFCLOCALPLACEMENT($,#450);
#452= IFCWALL('1n3wmmXv94KOK9tvPuQSOT',#20,$,$,$,#451,#446,$);
#453= IFCCARTESIANPOINT((14741.32393,24757.04095,2400.0));
#454= IFCCARTESIANPOINT((14638.82393,24654.54095,2400.0));
#455= IFCCARTESIANPOINT((14638.82393,24757.04095,2400.0));
#456= IFCCARTESIANPOINT((9158.82393,24757.04095,2400.0));
#457= IFCCARTESIANPOINT((9158.82393,24654.54095,2400.0));
#458= IFCCARTESIANPOINT((9056.32393,24757.04095,2400.0));
#459= IFCCARTESIANPOINT((14741.32393,24757.04095,0.0));
#460= IFCCARTESIANPOINT((14638.82393,24654.54095,0.0));
#461= IFCCARTESIANPOINT((14638.82393,24757.04095,0.0));
#462= IFCCARTESIANPOINT((9158.82393,24757.04095,0.0));
#463= IFCCARTESIANPOINT((9158.82393,24654.54095,0.0));
#464= IFCCARTESIANPOINT((9056.32393,24757.04095,0.0));
#465= IFCPOLYLOOP((#453,#454,#455));
#466= IFCFACEOUTERBOUND(#465,.F.);
#467= IFCFACE((#466));
#468= IFCPOLYLOOP((#456,#457,#458));
#469= IFCFACEOUTERBOUND(#468,.F.);
#470= IFCFACE((#469));
#471= IFCPOLYLOOP((#455,#454,#457));
#472= IFCFACEOUTERBOUND(#471,.F.);
#473= IFCFACE((#472));
#474= IFCPOLYLOOP((#455,#457,#456));
#475= IFCFACEOUTERBOUND(#474,.F.);
#476= IFCFACE((#475));
#477= IFCPOLYLOOP((#459,#460,#461));
#478= IFCFACEOUTERBOUND(#477,.F.);
#479= IFCFACE((#478));
#480= IFCPOLYLOOP((#462,#463,#464));
#481= IFCFACEOUTERBOUND(#480,.F.);
#482= IFCFACE((#481));
#483= IFCPOLYLOOP((#461,#460,#463));
#484= IFCFACEOUTERBOUND(#483,.F.);
#485= IFCFACE((#484));
#486= IFCPOLYLOOP((#461,#463,#462));
#487= IFCFACEOUTERBOUND(#486,.F.);
#488= IFCFACE((#487));
#489= IFCPOLYLOOP((#459,#460,#454));
#490= IFCFACEOUTERBOUND(#489,.F.);
#491= IFCFACE((#490));
#492= IFCPOLYLOOP((#459,#454,#453));
#493= IFCFACEOUTERBOUND(#492,.F.);
#494= IFCFACE((#493));
#495= IFCPOLYLOOP((#464,#463,#457));
#496= IFCFACEOUTERBOUND(#495,.F.);
#497= IFCFACE((#496));
#498= IFCPOLYLOOP((#464,#457,#458));
#499= IFCFACEOUTERBOUND(#498,.F.);
#500= IFCFACE((#499));
#501= IFCPOLYLOOP((#459,#464,#458));
#502= IFCFACEOUTERBOUND(#501,.F.);
#503= IFCFACE((#502));
#504= IFCPOLYLOOP((#459,#458,#453));
#505= IFCFACEOUTERBOUND(#504,.F.);
#506= IFCFACE((#505));
#507= IFCPOLYLOOP((#454,#457,#463));
#508= IFCFACEOUTERBOUND(#507,.F.);
#509= IFCFACE((#508));
#510= IFCPOLYLOOP((#454,#463,#460));
#511= IFCFACEOUTERBOUND(#510,.F.);
#512= IFCFACE((#511));
#513= IFCOPENSHELL((#467,#470,#473,#476,#479,#482,#485,#488,#491,#494,#497,#500,#503,#506,#509,#512));
#514= IFCFACEBASEDSURFACEMODEL((#513));
#515= IFCSTYLEDITEM(#514,(#516),$);
#516= IFCPRESENTATIONSTYLEASSIGNMENT((#98));
#517= IFCCARTESIANPOINT((14498.82393,24514.54095,2400.0));
#518= IFCCARTESIANPOINT((14398.82393,24414.54095,2400.0));
#519= IFCCARTESIANPOINT((14398.82393,24514.54095,2400.0));
#520= IFCCARTESIANPOINT((9398.82393,24514.54095,2400.0));
#521= IFCCARTESIANPOINT((9398.82393,24414.54095,2400.0));
#522= IFCCARTESIANPOINT((9298.82393,24514.54095,2400.0));
#523= IFCCARTESIANPOINT((14498.82393,24514.54095,0.0));
#524= IFCCARTESIANPOINT((14398.82393,24414.54095,0.0));
#525= IFCCARTESIANPOINT((14398.82393,24514.54095,0.0));
#526= IFCCARTESIANPOINT((9398.82393,24514.54095,0.0));
#527= IFCCARTESIANPOINT((9398.82393,24414.54095,0.0));
#528= IFCCARTESIANPOINT((9298.82393,24514.54095,0.0));
#529= IFCPOLYLOOP((#517,#518,#519));
#530= IFCFACEOUTERBOUND(#529,.F.);
#531= IFCFACE((#530));
#532= IFCPOLYLOOP((#520,#521,#522));
#533= IFCFACEOUTERBOUND(#532,.F.);
#534= IFCFACE((#533));
#535= IFCPOLYLOOP((#519,#518,#521));
#536= IFCFACEOUTERBOUND(#535,.F.);
#537= IFCFACE((#536));
#538= IFCPOLYLOOP((#519,#521,#520));
#539= IFCFACEOUTERBOUND(#538,.F.);
#540= IFCFACE((#539));
#541= IFCPOLYLOOP((#523,#524,#525));
#542= IFCFACEOUTERBOUND(#541,.F.);
#543= IFCFACE((#542));
#544= IFCPOLYLOOP((#526,#527,#528));
#545= IFCFACEOUTERBOUND(#544,.F.);
#546= IFCFACE((#545));
#547= IFCPOLYLOOP((#525,#524,#527));
#548= IFCFACEOUTERBOUND(#547,.F.);
#549= IFCFACE((#548));
#550= IFCPOLYLOOP((#525,#527,#526));
#551= IFCFACEOUTERBOUND(#550,.F.);
#552= IFCFACE((#551));
#553= IFCPOLYLOOP((#523,#524,#518));
#554= IFCFACEOUTERBOUND(#553,.F.);
#555= IFCFACE((#554));
#556= IFCPOLYLOOP((#523,#518,#517));
#557= IFCFACEOUTERBOUND(#556,.F.);
#558= IFCFACE((#557));
#559= IFCPOLYLOOP((#528,#527,#521));
#560= IFCFACEOUTERBOUND(#559,.F.);
#561= IFCFACE((#560));
#562= IFCPOLYLOOP((#528,#521,#522));
#563= IFCFACEOUTERBOUND(#562,.F.);
#564= IFCFACE((#563));
#565= IFCPOLYLOOP((#523,#528,#522));
#566= IFCFACEOUTERBOUND(#565,.F.);
#567= IFCFACE((#566));
#568= IFCPOLYLOOP((#523,#522,#517));
#569= IFCFACEOUTERBOUND(#568,.F.);
#570= IFCFACE((#569));
#571= IFCPOLYLOOP((#518,#521,#527));
#572= IFCFACEOUTERBOUND(#571,.F.);
#573= IFCFACE((#572));
#574= IFCPOLYLOOP((#518,#527,#524));
#575= IFCFACEOUTERBOUND(#574,.F.);
#576= IFCFACE((#575));
#577= IFCOPENSHELL((#467,#470,#473,#476,#479,#482,#485,#488,#491,#494,#497,#500,#503,#506,#509,#512,#531,#534,#537,#540,#543,#546,#549,#552,#555,#558,#561,#564,#567,#570,#573,#576));
#578= IFCFACEBASEDSURFACEMODEL((#577));
#579= IFCSTYLEDITEM(#578,(#580),$);
#580= IFCPRESENTATIONSTYLEASSIGNMENT((#165));
#581= IFCSHAPEREPRESENTATION(#172,'Body','SurfaceModel',(#514,#578));
#582= IFCPRODUCTDEFINITIONSHAPE($,$,(#581));
#583= IFCCARTESIANPOINT((0.0,0.0,0.0));
#584= IFCDIRECTION((0.0,0.0,1.0));
#585= IFCDIRECTION((1.0,0.0,0.0));
#586= IFCAXIS2PLACEMENT3D(#583,#584,#585);
#587= IFCLOCALPLACEMENT($,#586);
#588= IFCWALL('1lc_dQKXv1YBiq9OeaxXFW',#20,$,$,$,#587,#582,$);
#589= IFCCARTESIANPOINT((11898.82393,24414.54095,2400.0));
#590= IFCCARTESIANPOINT((11798.82393,24414.54095,2400.0));
#591= IFCCARTESIANPOINT((11798.82393,18414.54095,2400.0));
#592= IFCCARTESIANPOINT((11898.82393,18414.54095,2400.0));
#593= IFCCARTESIANPOINT((11898.82393,24414.54095,0.0));
#594= IFCCARTESIANPOINT((11798.82393,24414.54095,0.0));
#595= IFCCARTESIANPOINT((11798.82393,18414.54095,0.0));
#596= IFCCARTESIANPOINT((11898.82393,18414.54095,0.0));
#597= IFCPOLYLOOP((#589,#590,#591));
#598= IFCFACEOUTERBOUND(#597,.F.);
#599= IFCFACE((#598));
#600= IFCPOLYLOOP((#589,#591,#592));
#601= IFCFACEOUTERBOUND(#600,.F.);
#602= IFCFACE((#601));
#603= IFCPOLYLOOP((#593,#594,#595));
#604= IFCFACEOUTERBOUND(#603,.F.);
#605= IFCFACE((#604));
#606= IFCPOLYLOOP((#593,#595,#596));
#607= IFCFACEOUTERBOUND(#606,.F.);
#608= IFCFACE((#607));
#609= IFCPOLYLOOP((#593,#594,#590));
#610= IFCFACEOUTERBOUND(#609,.F.);
#611= IFCFACE((#610));
#612= IFCPOLYLOOP((#593,#590,#589));
#613= IFCFACEOUTERBOUND(#612,.F.);
#614= IFCFACE((#613));
#615= IFCPOLYLOOP((#596,#595,#591));
#616= IFCFACEOUTERBOUND(#615,.F.);
#617= IFCFACE((#616));
#618= IFCPOLYLOOP((#596,#591,#592));
#619= IFCFACEOUTERBOUND(#618,.F.);
#620= IFCFACE((#619));
#621= IFCPOLYLOOP((#593,#596,#592));
#622= IFCFACEOUTERBOUND(#621,.F.);
#623= IFCFACE((#622));
#624= IFCPOLYLOOP((#593,#592,#589));
#625= IFCFACEOUTERBOUND(#624,.F.);
#626= IFCFACE((#625));
#627= IFCPOLYLOOP((#590,#591,#595));
#628= IFCFACEOUTERBOUND(#627,.F.);
#629= IFCFACE((#628));
#630= IFCPOLYLOOP((#590,#595,#594));
#631= IFCFACEOUTERBOUND(#630,.F.);
#632= IFCFACE((#631));
#633= IFCOPENSHELL((#599,#602,#605,#608,#611,#614,#617,#620,#623,#626,#629,#632));
#634= IFCFACEBASEDSURFACEMODEL((#633));
#635= IFCCOLOURRGB($,0.956862745098039,0.913725490196078,0.847058823529412);
#636= IFCSURFACESTYLESHADING(#635);
#637= IFCSURFACESTYLE($,.BOTH.,(#636));
#638= IFCSTYLEDITEM(#634,(#639),$);
#639= IFCPRESENTATIONSTYLEASSIGNMENT((#637));
#640= IFCSHAPEREPRESENTATION(#172,'Body','SurfaceModel',(#634));
#641= IFCPRODUCTDEFINITIONSHAPE($,$,(#640));
#642= IFCCARTESIANPOINT((0.0,0.0,0.0));
#643= IFCDIRECTION((0.0,0.0,1.0));
#644= IFCDIRECTION((1.0,0.0,0.0));
#645= IFCAXIS2PLACEMENT3D(#642,#643,#644);
#646= IFCLOCALPLACEMENT($,#645);
#647= IFCWALL('0tzcMIZ6D3NgCfBT3Xfr$s',#20,$,$,$,#646,#641,$);
ENDSEC;

END-ISO-10303-21;

